<svg width="40" height="40" xmlns="http://www.w3.org/2000/svg">
 <g>
  <rect fill="none" height="42" width="42"/>
 </g>
 <g>
  <ellipse ry="2.405861" rx="2.405861" cy="25.655334" cx="11.62635" fill-opacity="null" stroke-width="null" stroke="#ffffff" fill="none"/>
  <ellipse ry="2.405861" rx="2.405861" cy="25.655334" cx="25.499109" fill-opacity="null" stroke-width="null" stroke="#ffffff" fill="none"/>
  <path d="m7.40828,26.061501l-2.47158,-0.003201l0,-12.248c0,0.0022 0.471931,-1.0591 1.159297,-1.2466c0.687366,-0.1875 15.437004,0 15.400503,-0.0032c0.036501,0.0032 2.034267,1.065589 3.2215,2.1903c1.187233,1.124711 2.687,2.6246 2.652599,2.6214c0.034401,0.003201 5.858099,0.003201 5.811499,-0.0625c0.046703,0.0625 0.784401,0.190701 1.284302,0.753099c0.499901,0.562401 0.624901,1.5623 0.590401,1.559c0.0345,0.0033 0.062481,6.213789 0,6.374001c-0.062481,0.160212 -4.964701,0.065701 -4.964701,0.065701c0,0 -0.4995,-4.811701 -4.749201,-4.749201c-4.2498,0.0625 -4.3118,4.811701 -4.3463,4.8085c0.0345,0.003201 -4.7185,0.003201 -4.749199,0c0.0306,0 -0.652434,-4.621 -4.4024,-4.746c-3.749966,-0.125 -4.4557,3.028999 -4.43672,4.686701z" fill-opacity="null" stroke-width="NaN" stroke="#ffffff" fill="none"/>
  <path d="m4.843956,17.375029l22.593174,-0.000269" fill-opacity="null" stroke-width="null" stroke="#ffffff" fill="none"/>
  <path d="m17.906279,12.312602l-0.031521,5.249661" fill-opacity="null" stroke-width="null" stroke="#ffffff" fill="none"/>
  <path d="m30.843603,20.187496l4.280924,-0.000269" fill-opacity="null" stroke-width="null" stroke="#ffffff" fill="none"/>
 </g>
</svg>