<svg class="svg-icon" viewBox="0 0 70.7 63.7" version="1.1" xmlns="http://www.w3.org/2000/svg" xmlns:xlink="http://www.w3.org/1999/xlink" xml:space="preserve">
<g class="svg-car fill-white">
<path d="M17.7,48.7c-3.7,0-6.7-3-6.7-6.7s3-6.7,6.7-6.7s6.7,3,6.7,6.7S21.4,48.7,17.7,48.7z M17.7,36.4 c-3.1,0-5.7,2.5-5.7,5.7s2.5,5.7,5.7,5.7s5.7-2.5,5.7-5.7S20.8,36.4,17.7,36.4z"/>
<path d="M17.7,44.5c-1.4,0-2.5-1.1-2.5-2.5s1.1-2.5,2.5-2.5s2.5,1.1,2.5,2.5S19.1,44.5,17.7,44.5z M17.7,40.5 c-0.8,0-1.5,0.7-1.5,1.5s0.7,1.5,1.5,1.5s1.5-0.7,1.5-1.5S18.5,40.5,17.7,40.5z"/>
<path d="M49.7,48.7c-3.7,0-6.7-3-6.7-6.7s3-6.7,6.7-6.7c3.7,0,6.7,3,6.7,6.7S53.4,48.7,49.7,48.7z M49.7,36.4 c-3.1,0-5.7,2.5-5.7,5.7s2.5,5.7,5.7,5.7s5.7-2.5,5.7-5.7S52.8,36.4,49.7,36.4z"/>
<path d="M49.7,44.5c-1.4,0-2.5-1.1-2.5-2.5s1.1-2.5,2.5-2.5c1.4,0,2.5,1.1,2.5,2.5S51.1,44.5,49.7,44.5z M49.7,40.5 c-0.8,0-1.5,0.7-1.5,1.5s0.7,1.5,1.5,1.5s1.5-0.7,1.5-1.5S50.5,40.5,49.7,40.5z"/>
<path d="M23,27.2H14c-0.6,0-1.1-0.5-1.1-1.1v-6.8c0-0.6,0.5-1.1,1.1-1.1H23c0.6,0,1.1,0.5,1.1,1.1v6.8 C24,26.7,23.6,27.2,23,27.2z M14,19.2C14,19.2,13.9,19.2,14,19.2l-0.1,6.9c0,0,0,0.1,0.1,0.1H23c0,0,0.1,0,0.1-0.1v-6.8	c0,0,0-0.1-0.1-0.1H14z"/>
<path d="M49.8,27.1c-0.1-0.1-2-1.6-5.8-5.4c-1-0.9-1.9-1.8-2.7-2.6l-1-0.9h1.5l0.2,0.1l8.5,8L49.8,27.1z"/>
<path d="M69,43.9H58.7l0.1-0.6c0.1-0.5,0.1-0.9,0.1-1.3c0-5.1-4.2-9.3-9.3-9.3c-5.1,0-9.3,4.1-9.3,9.3 c0,0.4,0,0.8,0.1,1.3l0.1,0.6H26.7l0.1-0.6c0.1-0.5,0.1-0.9,0.1-1.3c0-5.1-4.1-9.3-9.3-9.3S8.4,36.9,8.4,42c0,0.4,0,0.8,0.1,1.3
	l0.1,0.6l-4.1,0c-0.8-0.2-2.2-1-2.2-2.9v-4.3c0.1-0.8,0.7-2.1,1.9-2.1c0.1,0,0.1,0,0.2,0l0-11.9c0-0.1,0.2-2.6,1.6-4.8
	c1.9-2.8,4.3-3.6,4.4-3.6l0.1,0h25.8c0.3,0,1.5,0.4,5.6,4l1,0.9H29c0,0-0.1,0-0.1,0.1v6.8c0,0,0,0.1,0.1,0.1h29.6
	c3.4,0,6.6,1.7,8.6,4.6l0,0c1.2,1.7,1.8,3.7,1.8,5.8V43.9z M59.9,42.9H68v-6.4c0-1.9-0.6-3.7-1.6-5.2c-1.8-2.6-4.6-4.1-7.7-4.1H29
	c-0.6,0-1.1-0.5-1.1-1.1v-6.8c0-0.6,0.5-1.1,1.1-1.1h11.2c-3.1-2.7-4-2.9-4-2.9l-25.6,0c-0.4,0.1-2.2,0.9-3.7,3.2
	c-1.3,2-1.5,4.3-1.5,4.3l0,12.8l-0.5,0c0,0-0.2,0-0.7,0c-0.7,0-0.9,1.2-0.9,1.2l0,4.3c0,1.3,1.1,1.8,1.4,1.9h2.7c0-0.3,0-0.6,0-0.9
	c0-5.7,4.6-10.3,10.3-10.3S27.9,36.4,27.9,42c0,0.3,0,0.6,0,0.9h11.6c0-0.3,0-0.6,0-0.9c0-5.7,4.6-10.3,10.3-10.3S59.9,36.4,59.9,42
	C59.9,42.3,59.9,42.6,59.9,42.9z"/>
<rect x="58.5" y="30.6" width="8.2" height="1"/>
<polygon points="28.9,33.8 27.9,33.8 27.9,30.6 33.6,30.6 33.6,31.6 28.9,31.6 "/>
</g>
</svg>