<svg class="svg-icon" viewBox="0 0 113 113" version="1.1" xmlns="http://www.w3.org/2000/svg" xmlns:xlink="http://www.w3.org/1999/xlink" xml:space="preserve">
 <g class="svg-disk">
  <ellipse ry="52.16586" rx="52.16586" cy="56.415832" cx="56.415848" />
  <ellipse ry="15.999889" rx="15.999889" cy="56.415847" cx="56.415848" />
  <ellipse ry="10.499901" rx="10.499901" cy="56.415839" cx="56.415847" />
  <!--<ellipse ry="44.83254" rx="44.83254" cy="56.41585" cx="56.41585" />-->
  <ellipse ry="55.665852" rx="55.665852" cy="56.415849" cx="56.415843" />
  <path d="m12.251205,29.431656c21.083008,9.751007 24,13.666992 30.333008,9c6.333008,-4.666 4.333008,-6.667007 0.333008,-32.333008" />
  <path transform="rotate(-142.756, 64.393, 90.073)" d="m47.193375,84.481613c23.865982,10.933029 23.999985,13.667038 30.332993,9.000015c6.332977,-4.666 4.332977,-6.667007 0.332977,-32.332993" />
  <path transform="rotate(-71.5419, 28.0758, 75.7877)" d="m10.876236,70.306458c21.083008,9.751007 24,13.666992 30.333008,9c6.333008,-4.665985 4.333008,-6.666992 0.333008,-32.332977" />
  <path transform="rotate(149.793, 90.9439, 62.0392)" d="m73.744339,56.557983c21.083008,9.751007 24,13.666992 30.333008,9c6.333008,-4.665985 4.333008,-6.666992 0.333008,-32.332993" />
  <path transform="rotate(79.3084, 72.4461, 26.1638)" d="m55.246475,20.682617c21.083008,9.751007 24,13.666992 30.333008,9c6.333008,-4.666 4.333008,-6.667007 0.333008,-32.333008" />
 </g>
</svg>