<svg class="svg-icon" viewBox="0 0 30 30" version="1.1" xmlns="http://www.w3.org/2000/svg" xmlns:xlink="http://www.w3.org/1999/xlink" xml:space="preserve">
    <g class="svg-gp">
        <path class="fill-white" d="M19.31,0.309 L12.303,0.309 C9.18,0.309 7.019,0.993 5.073,2.601 C3.543,3.921 2.63,5.839 2.63,7.733 C2.63,10.65 4.855,13.75 8.976,13.75 C9.373,13.75 9.811,13.71 10.199,13.673 L10.142,13.812 C9.976,14.209 9.819,14.584 9.819,15.168 C9.819,16.306 10.368,17.008 10.899,17.686 L10.965,17.772 L10.847,17.78 C9.145,17.897 5.977,18.114 3.663,19.536 C0.929,21.162 0.717,23.525 0.717,24.211 C0.717,26.939 3.259,29.691 8.938,29.691 C15.541,29.691 18.996,26.048 18.996,22.45 C18.997,19.788 17.436,18.474 15.779,17.079 L14.382,15.992 C13.95,15.635 13.412,15.19 13.412,14.364 C13.412,13.554 13.95,13.018 14.425,12.546 L14.474,12.496 C15.983,11.307 17.694,9.96 17.694,7.045 C17.694,4.114 15.862,2.6 14.982,1.872 L17.307,1.872 C17.336,1.872 17.364,1.864 17.388,1.848 L19.391,0.589 C19.448,0.553 19.475,0.483 19.456,0.418 C19.437,0.353 19.378,0.309 19.31,0.309 z M10.813,28.085 C6.788,28.085 4.083,26.205 4.083,23.407 C4.083,21.58 5.189,20.253 7.368,19.463 C9.112,18.876 11.364,18.847 11.387,18.847 C11.768,18.847 11.96,18.847 12.265,18.885 C15.081,20.89 16.435,21.942 16.435,23.946 C16.435,26.499 14.28,28.085 10.813,28.085 z M10.775,12.676 C7.397,12.676 5.995,8.236 5.995,5.858 C5.995,4.649 6.27,3.721 6.835,3.021 C7.449,2.253 8.5,1.757 9.513,1.757 C12.615,1.757 14.33,5.925 14.33,8.807 C14.33,9.261 14.33,10.644 13.375,11.605 C12.732,12.246 11.687,12.676 10.775,12.676 z"></path>
        <path class="fill-white" d="M29.131,14.032 L25.439,14.032 L25.439,10.352 C25.439,10.269 25.371,10.201 25.287,10.201 L23.699,10.201 C23.615,10.201 23.547,10.269 23.547,10.352 L23.547,14.032 L19.873,14.032 C19.79,14.032 19.722,14.1 19.722,14.184 L19.722,15.793 C19.722,15.877 19.79,15.945 19.873,15.945 L23.547,15.945 L23.547,19.648 C23.547,19.732 23.615,19.8 23.699,19.8 L25.287,19.8 C25.371,19.8 25.439,19.732 25.439,19.648 L25.439,15.944 L29.131,15.944 C29.215,15.944 29.283,15.877 29.283,15.793 L29.283,14.184 C29.283,14.1 29.215,14.032 29.131,14.032 z"></path>
    </g>
</svg>
