<svg class="svg-icon" viewBox="0 0 30 30" version="1.1" xmlns="http://www.w3.org/2000/svg" xmlns:xlink="http://www.w3.org/1999/xlink" xml:space="preserve">
<g class="svg-li">
    <path class="fill-white" d="M29.808,18.2v10.949h-6.347V18.934c0-2.566-0.918-4.318-3.216-4.318 c-1.754,0-2.798,1.18-3.257,2.322c-0.167,0.408-0.211,0.976-0.211,1.548V29.15h-6.35c0,0,0.086-17.302,0-19.094h6.349v2.707 c-0.013,0.02-0.03,0.042-0.042,0.062h0.042v-0.062c0.844-1.299,2.35-3.155,5.722-3.155C26.675,9.605,29.808,12.335,29.808,18.2z M3.785,0.85c-2.172,0-3.593,1.425-3.593,3.298c0,1.833,1.38,3.301,3.509,3.301h0.042c2.214,0,3.591-1.468,3.591-3.301 C7.294,2.274,5.958,0.85,3.785,0.85z M0.57,29.148h6.347V10.054H0.57V29.148z"></path>
</g>
</svg>
