<svg class="svg-icon fill-none stroke-white svg-moto" viewBox="211 278 82 78" preserveAspectRatio="none" xmlns="http://www.w3.org/2000/svg">
  <path d="M 291.802 311.146" />
  <path d="M 224.006 302.464 C 224.006 302.347 236.722 301.997 238.822 302.464 C 240.922 302.931 245.705 308.414 245.705 308.414 L 251.305 308.414 C 251.305 308.414 252.704 305.848 254.221 304.914 C 255.738 303.98 260.754 304.33 260.754 304.33 C 260.754 304.33 260.645 298.489 260.813 298.511 C 260.981 298.533 266.941 298.365 271.819 303.576 C 276.697 308.787 275.92 314.013 275.92 314.013 L 255.154 313.897 L 245.472 323.463 L 224.006 302.464 Z" style=""/>
  <ellipse style="stroke-linecap: square; " cx="231.981" cy="325.22" rx="8.176" ry="8.176"/>
  <ellipse style="stroke-linecap: square; " cx="232.045" cy="325.174" rx="2.566" ry="2.566"/>
  <ellipse style="stroke-linecap: square; " cx="271.961" cy="325.348" rx="8.176" ry="8.176"/>
  <ellipse style="stroke-linecap: square; " cx="272.026" cy="325.302" rx="2.566" ry="2.566"/>
  <path d="M 244.543 322.815 C 243.843 322.815 233.275 322.873 233.275 322.873" style=""/>
  <path d="M 230.859 329.035" style=""/>
  <path d="M 268.756 314.031 C 268.756 314.031 264.076 315.057 261.767 319.417 C 259.458 323.777 260.356 327.689 260.356 327.689 L 232.334 327.689" style=""/>
  <path d="M 267.088 314.928 L 271 322.879" style=""/>
  <path d="M 256.188 300.372 L 260.676 300.308" style=" stroke-linecap: round;"/>
</svg>