<svg class="svg-icon" viewBox="0 0 51.7 51.2" version="1.1" xmlns="http://www.w3.org/2000/svg" xmlns:xlink="http://www.w3.org/1999/xlink" xml:space="preserve">
<g class="svg-wheel fill-white">
<path d="M26,50.2c-13.5,0-24.5-11-24.5-24.5S12.5,1.2,26,1.2s24.5,11,24.5,24.5S39.5,50.2,26,50.2z M26,2.2 C13,2.2,2.5,12.7,2.5,25.7S13,49.2,26,49.2s23.5-10.5,23.5-23.5S39,2.2,26,2.2z"/>
<path d="M26,40.9c-8.4,0-15.3-6.8-15.3-15.3c0-8.4,6.8-15.3,15.3-15.3s15.3,6.8,15.3,15.3C41.3,34.1,34.4,40.9,26,40.9z M26,11.4c-7.9,0-14.3,6.4-14.3,14.3S18.1,39.9,26,39.9s14.3-6.4,14.3-14.3S33.9,11.4,26,11.4z"/>
<path d="M26,37.1c-6.3,0-11.5-5.1-11.5-11.5S19.7,14.2,26,14.2s11.5,5.1,11.5,11.5S32.3,37.1,26,37.1z M26,15.2 c-5.8,0-10.5,4.7-10.5,10.5S20.2,36.1,26,36.1s10.5-4.7,10.5-10.5S31.8,15.2,26,15.2z"/>
<path d="M26,29.3c-2,0-3.7-1.6-3.7-3.7S24,22,26,22s3.7,1.6,3.7,3.7S28,29.3,26,29.3z M26,23c-1.5,0-2.7,1.2-2.7,2.7 s1.2,2.7,2.7,2.7s2.7-1.2,2.7-2.7S27.5,23,26,23z"/>
<rect x="25.5" y="28.8" width="1" height="7.8"/>
<rect x="25.5" y="14.7" width="1" height="7.8"/>
<rect x="31.4" y="18.8" transform="matrix(0.5244 0.8515 -0.8515 0.5244 34.5092 -16.3198)" width="1" height="7.8"/>
<rect x="19.4" y="25.8" transform="matrix(0.5244 0.8515 -0.8515 0.5244 34.7621 -2.7725)" width="1" height="7.8"/>
<rect x="27.7" y="28.7" transform="matrix(0.8384 0.545 -0.545 0.8384 20.9944 -12.5081)" width="7.8" height="1"/>
<rect x="16.2" y="21.8" transform="matrix(0.8384 0.545 -0.545 0.8384 15.4089 -7.3684)" width="7.8" height="1"/>
<rect x="3.5" y="22.9" transform="matrix(0.6933 0.7206 -0.7206 0.6933 19.7597 4.9667)" width="1" height="5.7"/>
<rect x="47.5" y="22.9" transform="matrix(0.6933 0.7206 -0.7206 0.6933 33.2544 -26.7416)" width="1" height="5.7"/>
<rect x="23.2" y="3.2" transform="matrix(0.6935 0.7204 -0.7204 0.6935 10.6467 -17.6304)" width="5.7" height="1"/>
<rect x="23.2" y="47.2" transform="matrix(0.6935 0.7204 -0.7204 0.6935 42.3461 -4.1451)" width="5.7" height="1"/>
<rect x="32" y="5.1" transform="matrix(0.3456 0.9384 -0.9384 0.3456 28.0359 -29.1008)" width="5.7" height="1"/>
<rect x="14.4" y="45.3" transform="matrix(0.3456 0.9384 -0.9384 0.3456 54.2772 13.8532)" width="5.7" height="1"/>
<rect x="38.4" y="9.3" transform="matrix(1.290321e-03 1 -1 1.290321e-03 51.0577 -31.4656)" width="5.7" height="1"/>
<rect x="8" y="41.1" transform="matrix(1.290321e-03 1 -1 1.290321e-03 52.3607 30.7063)" width="5.7" height="1"/>
<rect x="45.4" y="13.4" transform="matrix(0.9365 0.3506 -0.3506 0.9365 8.5968 -15.0612)" width="1" height="5.7"/>
<rect x="5.7" y="32.3" transform="matrix(0.9365 0.3506 -0.3506 0.9365 12.7283 6.130669e-02)" width="1" height="5.7"/>
<rect x="31.6" y="45.5" transform="matrix(0.9159 0.4014 -0.4014 0.9159 21.3739 -9.9512)" width="5.7" height="1"/>
<rect x="14.8" y="4.9" transform="matrix(0.9159 0.4015 -0.4015 0.9159 3.6374 -6.6361)" width="5.7" height="1"/>
<rect x="39" y="40.5" transform="matrix(1 1.806449e-03 -1.806449e-03 1 7.410257e-02 -7.556450e-02)" width="5.7" height="1"/>
<rect x="7.4" y="9.9" transform="matrix(1 1.720428e-03 -1.720428e-03 1 1.792953e-02 -1.757067e-02)" width="5.7" height="1"/>
<rect x="46" y="31.1" transform="matrix(0.3739 0.9275 -0.9275 0.3739 60.5387 -21.8488)" width="1" height="5.7"/>
<rect x="5.1" y="14.6" transform="matrix(0.3739 0.9275 -0.9275 0.3739 19.742 5.7161)" width="1" height="5.7"/>
</g>
</svg>
