<svg class="svg-icon" viewBox="0 0 30 30" version="1.1" xmlns="http://www.w3.org/2000/svg" xmlns:xlink="http://www.w3.org/1999/xlink" xml:space="preserve">
<g class="svg-yt">
    <path class="fill-white" d="M 3.4 1.7 L 5.8 1.7 L 7.4 6.4 L 7.5 6.4 L 9 1.7 L 11.4 1.7 L 8.7 8.6 L 8.7 13.6 L 6.3 13.6 L 6.3 8.9 L 3.4 1.7 Z"></path>
    <path class="fill-white" d="M 11.7 6.8 C 11.7 6.1 12 5.5 12.5 5.1 C 13.1 4.7 13.9 4.5 14.8 4.5 C 15.7 4.5 16.4 4.7 17 5.2 C 17.6 5.6 17.9 6.2 17.9 6.8 L 17.9 11.5 C 17.9 12.3 17.6 12.9 17 13.3 C 16.5 13.8 15.7 14 14.7 14 C 13.8 14 13.1 13.7 12.5 13.3 C 12 12.8 11.7 12.2 11.7 11.5 L 11.7 6.8 L 11.7 6.8 ZM 13.9 11.6 L 13.9 11.6 C 13.9 11.9 13.9 12.1 14.1 12.2 C 14.2 12.3 14.5 12.4 14.7 12.4 C 15 12.4 15.3 12.3 15.4 12.2 C 15.6 12.1 15.7 11.9 15.7 11.6 L 15.7 6.7 C 15.7 6.5 15.6 6.4 15.4 6.3 C 15.2 6.1 15 6.1 14.7 6.1 C 14.5 6.1 14.3 6.1 14.1 6.3 C 13.9 6.4 13.9 6.5 13.9 6.7 L 13.9 11.6 Z"></path>
    <path class="fill-white" d="M 25.6 4.7 L 25.6 13.7 L 23.5 13.7 L 23.5 12.7 C 23.1 13 22.7 13.3 22.3 13.5 C 21.9 13.7 21.4 13.8 21 13.8 C 20.5 13.8 20.2 13.7 19.9 13.4 C 19.7 13.1 19.6 12.7 19.6 12.2 L 19.6 4.7 L 21.7 4.7 L 21.7 11.6 C 21.7 11.8 21.7 11.9 21.8 12 C 21.9 12.1 22.1 12.2 22.3 12.2 C 22.4 12.2 22.6 12.1 22.8 12 C 23.1 11.8 23.3 11.7 23.5 11.5 L 23.5 4.7 L 25.6 4.7 Z"></path>
    <path class="fill-white" d="M 27.2 18 C 27.2 16.4 25.6 15.1 23.6 15.1 C 20.8 15 17.9 15 15 15 C 12.1 15 9.2 15 6.4 15.1 C 4.4 15.1 2.8 16.4 2.8 18 C 2.7 19.2 2.6 20.4 2.6 21.7 C 2.6 22.9 2.7 24.1 2.8 25.4 C 2.8 26.9 4.4 28.2 6.4 28.2 C 9.2 28.3 12.1 28.3 15 28.3 C 17.9 28.3 20.8 28.3 23.6 28.2 C 25.6 28.2 27.2 26.9 27.2 25.4 C 27.3 24.1 27.4 22.9 27.4 21.7 C 27.4 20.4 27.3 19.2 27.2 18 Z"></path>
    <path class="fill-black" d="M 9.7 17.2 L 4.5 17.2 L 4.5 18.4 L 6.3 18.4 L 6.3 25.9 L 8 25.9 L 8 18.4 L 9.7 18.4 L 9.7 17.2 L 9.7 17.2 ZM 12.5 24.4 L 12.5 19.4 L 14 19.4 L 14 25.9 L 12.5 25.9 L 12.5 25.2 C 12.2 25.5 11.9 25.7 11.6 25.8 C 11.3 25.9 11 26 10.8 26 C 10.4 26 10.1 25.9 10 25.7 C 9.8 25.5 9.7 25.2 9.7 24.9 L 9.7 19.4 L 11.2 19.4 L 11.2 24.4 C 11.2 24.6 11.2 24.7 11.3 24.7 C 11.4 24.8 11.5 24.8 11.6 24.8 C 11.7 24.8 11.9 24.8 12 24.7 C 12.2 24.6 12.4 24.5 12.5 24.4 L 12.5 24.4 L 12.5 24.4 ZM 18.3 19.4 L 18.3 19.4 C 18.1 19.4 17.9 19.4 17.6 19.5 C 17.4 19.6 17.2 19.8 17 20 L 17 17.2 L 15.5 17.2 L 15.5 25.9 L 17 25.9 L 17 25.4 C 17.2 25.6 17.4 25.8 17.6 25.9 C 17.9 25.9 18.1 26 18.4 26 C 18.9 26 19.2 25.9 19.4 25.6 C 19.7 25.4 19.8 25 19.8 24.6 L 19.8 21 C 19.8 20.5 19.7 20.1 19.4 19.8 C 19.2 19.5 18.8 19.4 18.3 19.4 L 18.3 19.4 ZM 18.2 24.4 L 18.2 24.4 C 18.2 24.6 18.2 24.8 18.1 24.8 C 18 24.9 17.9 25 17.7 25 C 17.6 25 17.5 25 17.3 24.9 C 17.2 24.9 17.1 24.8 17 24.7 L 17 20.7 C 17.1 20.6 17.2 20.5 17.3 20.5 C 17.4 20.4 17.5 20.4 17.6 20.4 C 17.8 20.4 18 20.5 18.1 20.6 C 18.2 20.7 18.2 20.8 18.2 21.1 L 18.2 24.4 L 18.2 24.4 ZM 25.3 22.8 L 25.3 22.8 L 25.3 21.2 C 25.3 20.6 25.2 20.1 24.8 19.8 C 24.4 19.4 23.9 19.3 23.2 19.3 C 22.5 19.3 22 19.5 21.6 19.8 C 21.1 20.2 20.9 20.6 20.9 21.2 L 20.9 24.1 C 20.9 24.7 21.1 25.2 21.5 25.6 C 21.9 25.9 22.4 26.1 23.1 26.1 C 23.8 26.1 24.4 25.9 24.8 25.6 C 25.2 25.2 25.3 24.8 25.3 24.1 L 25.3 23.6 L 23.8 23.6 L 23.8 24.1 C 23.8 24.4 23.7 24.7 23.6 24.8 C 23.5 24.9 23.4 25 23.1 25 C 22.9 25 22.7 24.9 22.6 24.8 C 22.5 24.6 22.5 24.4 22.5 24.1 L 22.5 22.8 L 25.3 22.8 L 25.3 22.8 ZM 22.5 21.2 L 22.5 21.2 C 22.5 20.9 22.5 20.7 22.6 20.6 C 22.7 20.5 22.9 20.4 23.1 20.4 C 23.4 20.4 23.5 20.5 23.6 20.6 C 23.7 20.7 23.8 20.9 23.8 21.2 L 23.8 21.8 L 22.5 21.8 L 22.5 21.2 Z"></path>
</g>
</svg>